<mxfile host="app.diagrams.net" agent="Mozilla/5.0 (Windows NT 10.0; Win64; x64) AppleWebKit/537.36 (KHTML, like Gecko) Chrome/131.0.0.0 Safari/537.36" version="26.0.2">
  <diagram name="Page-1" id="ow8yV7soUevK0If1KZrk">
    <mxGraphModel dx="2607" dy="1404" grid="1" gridSize="10" guides="1" tooltips="1" connect="1" arrows="1" fold="1" page="1" pageScale="1" pageWidth="850" pageHeight="1100" math="0" shadow="0">
      <root>
        <mxCell id="0" />
        <mxCell id="1" parent="0" />
        <mxCell id="VNkFq0JRNNYY1hxNsVwh-1" value="Online Shopping" style="ellipse;whiteSpace=wrap;html=1;aspect=fixed;" vertex="1" parent="1">
          <mxGeometry x="374" y="499" width="102" height="102" as="geometry" />
        </mxCell>
        <mxCell id="VNkFq0JRNNYY1hxNsVwh-2" value="Admin" style="rounded=0;whiteSpace=wrap;html=1;" vertex="1" parent="1">
          <mxGeometry x="80" y="400" width="120" height="60" as="geometry" />
        </mxCell>
        <mxCell id="VNkFq0JRNNYY1hxNsVwh-3" value="Customer" style="rounded=0;whiteSpace=wrap;html=1;" vertex="1" parent="1">
          <mxGeometry x="650" y="400" width="120" height="60" as="geometry" />
        </mxCell>
        <mxCell id="VNkFq0JRNNYY1hxNsVwh-4" value="Seller" style="rounded=0;whiteSpace=wrap;html=1;" vertex="1" parent="1">
          <mxGeometry x="80" y="660" width="120" height="60" as="geometry" />
        </mxCell>
        <mxCell id="VNkFq0JRNNYY1hxNsVwh-5" value="" style="endArrow=classic;html=1;rounded=0;exitX=0;exitY=0.5;exitDx=0;exitDy=0;entryX=0.496;entryY=1.044;entryDx=0;entryDy=0;entryPerimeter=0;" edge="1" parent="1">
          <mxGeometry width="50" height="50" relative="1" as="geometry">
            <mxPoint x="374" y="547.36" as="sourcePoint" />
            <mxPoint x="139.51999999999998" y="460.0000000000001" as="targetPoint" />
            <Array as="points">
              <mxPoint x="140" y="547.36" />
            </Array>
          </mxGeometry>
        </mxCell>
        <mxCell id="VNkFq0JRNNYY1hxNsVwh-7" value="Provide Seller Details" style="text;html=1;align=center;verticalAlign=middle;resizable=0;points=[];autosize=1;strokeColor=none;fillColor=none;" vertex="1" parent="1">
          <mxGeometry x="10" y="499" width="140" height="30" as="geometry" />
        </mxCell>
        <mxCell id="VNkFq0JRNNYY1hxNsVwh-8" value="" style="endArrow=classic;html=1;rounded=0;exitX=0.75;exitY=1;exitDx=0;exitDy=0;entryX=0.017;entryY=0.403;entryDx=0;entryDy=0;entryPerimeter=0;" edge="1" parent="1" target="VNkFq0JRNNYY1hxNsVwh-1">
          <mxGeometry width="50" height="50" relative="1" as="geometry">
            <mxPoint x="150" y="460" as="sourcePoint" />
            <mxPoint x="353.38800000000003" y="538.78" as="targetPoint" />
            <Array as="points">
              <mxPoint x="150" y="540" />
            </Array>
          </mxGeometry>
        </mxCell>
        <mxCell id="VNkFq0JRNNYY1hxNsVwh-9" value="Approve/Reject Seller" style="text;html=1;align=center;verticalAlign=middle;resizable=0;points=[];autosize=1;strokeColor=none;fillColor=none;" vertex="1" parent="1">
          <mxGeometry x="140" y="499" width="140" height="30" as="geometry" />
        </mxCell>
        <mxCell id="VNkFq0JRNNYY1hxNsVwh-10" value="" style="endArrow=classic;html=1;rounded=0;exitX=0.5;exitY=0;exitDx=0;exitDy=0;entryX=0;entryY=0.5;entryDx=0;entryDy=0;" edge="1" parent="1" source="VNkFq0JRNNYY1hxNsVwh-1" target="VNkFq0JRNNYY1hxNsVwh-3">
          <mxGeometry width="50" height="50" relative="1" as="geometry">
            <mxPoint x="420" y="480" as="sourcePoint" />
            <mxPoint x="470" y="430" as="targetPoint" />
            <Array as="points">
              <mxPoint x="425" y="430" />
            </Array>
          </mxGeometry>
        </mxCell>
        <mxCell id="VNkFq0JRNNYY1hxNsVwh-11" value="" style="endArrow=classic;html=1;rounded=0;exitX=-0.002;exitY=0.663;exitDx=0;exitDy=0;entryX=0.597;entryY=-0.004;entryDx=0;entryDy=0;entryPerimeter=0;exitPerimeter=0;" edge="1" parent="1" source="VNkFq0JRNNYY1hxNsVwh-3" target="VNkFq0JRNNYY1hxNsVwh-1">
          <mxGeometry width="50" height="50" relative="1" as="geometry">
            <mxPoint x="499.9959999999999" y="499" as="sourcePoint" />
            <mxPoint x="587.04" y="449" as="targetPoint" />
            <Array as="points">
              <mxPoint x="435" y="440" />
            </Array>
          </mxGeometry>
        </mxCell>
        <mxCell id="VNkFq0JRNNYY1hxNsVwh-12" value="" style="endArrow=classic;html=1;rounded=0;exitX=0.5;exitY=1;exitDx=0;exitDy=0;entryX=0;entryY=0.5;entryDx=0;entryDy=0;" edge="1" parent="1" source="VNkFq0JRNNYY1hxNsVwh-3">
          <mxGeometry width="50" height="50" relative="1" as="geometry">
            <mxPoint x="701" y="481" as="sourcePoint" />
            <mxPoint x="476" y="550" as="targetPoint" />
            <Array as="points">
              <mxPoint x="710" y="550" />
            </Array>
          </mxGeometry>
        </mxCell>
        <mxCell id="VNkFq0JRNNYY1hxNsVwh-13" value="" style="endArrow=classic;html=1;rounded=0;entryX=0.579;entryY=1.042;entryDx=0;entryDy=0;entryPerimeter=0;exitX=0.994;exitY=0.598;exitDx=0;exitDy=0;exitPerimeter=0;" edge="1" parent="1" source="VNkFq0JRNNYY1hxNsVwh-1" target="VNkFq0JRNNYY1hxNsVwh-3">
          <mxGeometry width="50" height="50" relative="1" as="geometry">
            <mxPoint x="480" y="560" as="sourcePoint" />
            <mxPoint x="486" y="560" as="targetPoint" />
            <Array as="points">
              <mxPoint x="719" y="560" />
            </Array>
          </mxGeometry>
        </mxCell>
        <mxCell id="VNkFq0JRNNYY1hxNsVwh-14" value="" style="endArrow=classic;html=1;rounded=0;exitX=1;exitY=0.5;exitDx=0;exitDy=0;entryX=0.452;entryY=1.007;entryDx=0;entryDy=0;entryPerimeter=0;" edge="1" parent="1" source="VNkFq0JRNNYY1hxNsVwh-4" target="VNkFq0JRNNYY1hxNsVwh-1">
          <mxGeometry width="50" height="50" relative="1" as="geometry">
            <mxPoint x="210" y="690" as="sourcePoint" />
            <mxPoint x="260" y="640" as="targetPoint" />
            <Array as="points">
              <mxPoint x="420" y="690" />
            </Array>
          </mxGeometry>
        </mxCell>
        <mxCell id="VNkFq0JRNNYY1hxNsVwh-15" value="" style="endArrow=classic;html=1;rounded=0;entryX=0.541;entryY=1.002;entryDx=0;entryDy=0;entryPerimeter=0;exitX=0.541;exitY=1.002;exitDx=0;exitDy=0;exitPerimeter=0;" edge="1" parent="1" target="VNkFq0JRNNYY1hxNsVwh-1">
          <mxGeometry width="50" height="50" relative="1" as="geometry">
            <mxPoint x="199.99999999999997" y="699.9999999999999" as="sourcePoint" />
            <mxPoint x="229.28" y="792.56" as="targetPoint" />
            <Array as="points">
              <mxPoint x="429" y="700" />
            </Array>
          </mxGeometry>
        </mxCell>
        <mxCell id="VNkFq0JRNNYY1hxNsVwh-16" value="" style="endArrow=classic;html=1;rounded=0;exitX=0.5;exitY=0;exitDx=0;exitDy=0;entryX=0.088;entryY=0.795;entryDx=0;entryDy=0;entryPerimeter=0;" edge="1" parent="1" target="VNkFq0JRNNYY1hxNsVwh-1">
          <mxGeometry width="50" height="50" relative="1" as="geometry">
            <mxPoint x="140" y="659.9999999999999" as="sourcePoint" />
            <mxPoint x="382.568" y="575.9079999999999" as="targetPoint" />
            <Array as="points">
              <mxPoint x="140" y="580" />
            </Array>
          </mxGeometry>
        </mxCell>
        <mxCell id="VNkFq0JRNNYY1hxNsVwh-17" value="" style="endArrow=classic;html=1;rounded=0;entryX=0.583;entryY=0;entryDx=0;entryDy=0;entryPerimeter=0;exitX=0.169;exitY=0.875;exitDx=0;exitDy=0;exitPerimeter=0;" edge="1" parent="1" source="VNkFq0JRNNYY1hxNsVwh-1" target="VNkFq0JRNNYY1hxNsVwh-4">
          <mxGeometry width="50" height="50" relative="1" as="geometry">
            <mxPoint x="390" y="588" as="sourcePoint" />
            <mxPoint x="170" y="650" as="targetPoint" />
            <Array as="points">
              <mxPoint x="150" y="590" />
            </Array>
          </mxGeometry>
        </mxCell>
        <mxCell id="VNkFq0JRNNYY1hxNsVwh-19" value="" style="endArrow=classic;html=1;rounded=0;exitX=0;exitY=1;exitDx=0;exitDy=0;entryX=0.886;entryY=0.173;entryDx=0;entryDy=0;entryPerimeter=0;" edge="1" parent="1" source="VNkFq0JRNNYY1hxNsVwh-3" target="VNkFq0JRNNYY1hxNsVwh-1">
          <mxGeometry width="50" height="50" relative="1" as="geometry">
            <mxPoint x="610" y="520" as="sourcePoint" />
            <mxPoint x="660" y="470" as="targetPoint" />
          </mxGeometry>
        </mxCell>
        <mxCell id="VNkFq0JRNNYY1hxNsVwh-20" value="Search Product" style="text;html=1;align=center;verticalAlign=middle;resizable=0;points=[];autosize=1;strokeColor=none;fillColor=none;" vertex="1" parent="1">
          <mxGeometry x="535" y="529" width="110" height="30" as="geometry" />
        </mxCell>
        <mxCell id="VNkFq0JRNNYY1hxNsVwh-21" value="Show Relevant Product" style="text;html=1;align=center;verticalAlign=middle;resizable=0;points=[];autosize=1;strokeColor=none;fillColor=none;" vertex="1" parent="1">
          <mxGeometry x="515" y="552" width="150" height="30" as="geometry" />
        </mxCell>
        <mxCell id="VNkFq0JRNNYY1hxNsVwh-22" value="Buy Product" style="text;html=1;align=center;verticalAlign=middle;resizable=0;points=[];autosize=1;strokeColor=none;fillColor=none;" vertex="1" parent="1">
          <mxGeometry x="476" y="407" width="90" height="30" as="geometry" />
        </mxCell>
        <mxCell id="VNkFq0JRNNYY1hxNsVwh-24" value="Confirm Order" style="text;html=1;align=center;verticalAlign=middle;resizable=0;points=[];autosize=1;strokeColor=none;fillColor=none;" vertex="1" parent="1">
          <mxGeometry x="471" y="434" width="100" height="30" as="geometry" />
        </mxCell>
        <mxCell id="VNkFq0JRNNYY1hxNsVwh-25" value="Cancel Order" style="text;html=1;align=center;verticalAlign=middle;resizable=0;points=[];autosize=1;strokeColor=none;fillColor=none;rotation=343;" vertex="1" parent="1">
          <mxGeometry x="515" y="480" width="90" height="30" as="geometry" />
        </mxCell>
        <mxCell id="VNkFq0JRNNYY1hxNsVwh-27" value="" style="endArrow=classic;html=1;rounded=0;entryX=0.328;entryY=0.972;entryDx=0;entryDy=0;entryPerimeter=0;" edge="1" parent="1" target="VNkFq0JRNNYY1hxNsVwh-1">
          <mxGeometry width="50" height="50" relative="1" as="geometry">
            <mxPoint x="200" y="660" as="sourcePoint" />
            <mxPoint x="280" y="590" as="targetPoint" />
          </mxGeometry>
        </mxCell>
        <mxCell id="VNkFq0JRNNYY1hxNsVwh-28" value="Run Ads" style="text;html=1;align=center;verticalAlign=middle;resizable=0;points=[];autosize=1;strokeColor=none;fillColor=none;rotation=343;" vertex="1" parent="1">
          <mxGeometry x="260" y="624" width="70" height="30" as="geometry" />
        </mxCell>
        <mxCell id="VNkFq0JRNNYY1hxNsVwh-32" value="Manage Seller Profile" style="text;html=1;align=center;verticalAlign=middle;resizable=0;points=[];autosize=1;strokeColor=none;fillColor=none;" vertex="1" parent="1">
          <mxGeometry x="230" y="667" width="140" height="30" as="geometry" />
        </mxCell>
        <mxCell id="VNkFq0JRNNYY1hxNsVwh-33" value="Add or Edit Product Listings" style="text;html=1;align=center;verticalAlign=middle;resizable=0;points=[];autosize=1;strokeColor=none;fillColor=none;" vertex="1" parent="1">
          <mxGeometry x="215" y="693" width="170" height="30" as="geometry" />
        </mxCell>
        <mxCell id="VNkFq0JRNNYY1hxNsVwh-34" value="Process Orders" style="text;html=1;align=center;verticalAlign=middle;resizable=0;points=[];autosize=1;strokeColor=none;fillColor=none;" vertex="1" parent="1">
          <mxGeometry x="184" y="556" width="110" height="30" as="geometry" />
        </mxCell>
        <mxCell id="VNkFq0JRNNYY1hxNsVwh-35" value="Provide Orders" style="text;html=1;align=center;verticalAlign=middle;resizable=0;points=[];autosize=1;strokeColor=none;fillColor=none;" vertex="1" parent="1">
          <mxGeometry x="189" y="582" width="100" height="30" as="geometry" />
        </mxCell>
      </root>
    </mxGraphModel>
  </diagram>
</mxfile>
